# xmcd
#
# Track frame offsets:
#	150
#	21810
#	35850
#	56271
#	87421
#	98394
#	113311
#	146515
#	161560
#	185942
#	196883
#	222075
#
# Disc length: 3395 seconds
#
# Revision: 1
# Processed by: cddbd v1.5.2PL0 Copyright (c) Steve Scherf et al.
# Submitted via: audiograbber 1.83.01
#
DISCID=9b0d410c
DTITLE=Tany and Dorise - Street Takes Violin and Guitar Duets
DYEAR=2008
DGENRE=classical
TTITLE0=What's Goin' On
TTITLE1=The Girl from Ipanema
TTITLE2=Love's Theme
TTITLE3=Over the Rainbow
TTITLE4=El Choclo
TTITLE5=Tennessee Waltz
TTITLE6=Canon in D
TTITLE7=Do You Know What it Means to Miss New Orleans?
TTITLE8=Killing me Softly
TTITLE9=Orange Blossom Special
TTITLE10=Waiting in Vain
TTITLE11=Hotel California
EXTD=
EXTT0=
EXTT1=
EXTT2=
EXTT3=
EXTT4=
EXTT5=
EXTT6=
EXTT7=
EXTT8=
EXTT9=
EXTT10=
EXTT11=
PLAYORDER=
